<mxfile host="app.diagrams.net" agent="Mozilla/5.0 (Windows NT 10.0; Win64; x64) AppleWebKit/537.36 (KHTML, like Gecko) Chrome/131.0.0.0 Safari/537.36" version="24.8.4">
  <diagram name="Página-1" id="5jErbg6mfOHogHs_VuIp">
    <mxGraphModel dx="2474" dy="839" grid="1" gridSize="10" guides="1" tooltips="1" connect="1" arrows="1" fold="1" page="1" pageScale="1" pageWidth="827" pageHeight="1169" math="0" shadow="0">
      <root>
        <mxCell id="0" />
        <mxCell id="1" parent="0" />
        <mxCell id="rI2FF03CvznGLxYAP6oC-3" style="edgeStyle=orthogonalEdgeStyle;rounded=0;orthogonalLoop=1;jettySize=auto;html=1;entryX=0.5;entryY=1;entryDx=0;entryDy=0;" parent="1" source="rI2FF03CvznGLxYAP6oC-1" target="rI2FF03CvznGLxYAP6oC-2" edge="1">
          <mxGeometry relative="1" as="geometry">
            <mxPoint x="110" y="100" as="targetPoint" />
          </mxGeometry>
        </mxCell>
        <mxCell id="rI2FF03CvznGLxYAP6oC-6" value="" style="edgeStyle=orthogonalEdgeStyle;rounded=0;orthogonalLoop=1;jettySize=auto;html=1;" parent="1" source="rI2FF03CvznGLxYAP6oC-1" target="rI2FF03CvznGLxYAP6oC-5" edge="1">
          <mxGeometry relative="1" as="geometry" />
        </mxCell>
        <mxCell id="rI2FF03CvznGLxYAP6oC-23" value="" style="edgeStyle=orthogonalEdgeStyle;rounded=0;orthogonalLoop=1;jettySize=auto;html=1;" parent="1" source="rI2FF03CvznGLxYAP6oC-1" target="rI2FF03CvznGLxYAP6oC-22" edge="1">
          <mxGeometry relative="1" as="geometry" />
        </mxCell>
        <mxCell id="rI2FF03CvznGLxYAP6oC-1" value="Controller" style="rounded=0;whiteSpace=wrap;html=1;" parent="1" vertex="1">
          <mxGeometry x="-100" y="190" width="120" height="60" as="geometry" />
        </mxCell>
        <mxCell id="rI2FF03CvznGLxYAP6oC-2" value="Models" style="rounded=0;whiteSpace=wrap;html=1;" parent="1" vertex="1">
          <mxGeometry x="30" y="80" width="120" height="60" as="geometry" />
        </mxCell>
        <mxCell id="rI2FF03CvznGLxYAP6oC-8" value="" style="edgeStyle=orthogonalEdgeStyle;rounded=0;orthogonalLoop=1;jettySize=auto;html=1;" parent="1" source="rI2FF03CvznGLxYAP6oC-5" target="rI2FF03CvznGLxYAP6oC-7" edge="1">
          <mxGeometry relative="1" as="geometry" />
        </mxCell>
        <mxCell id="rI2FF03CvznGLxYAP6oC-5" value="Interfaces" style="rounded=0;whiteSpace=wrap;html=1;" parent="1" vertex="1">
          <mxGeometry x="-10" y="310" width="120" height="60" as="geometry" />
        </mxCell>
        <mxCell id="rI2FF03CvznGLxYAP6oC-10" value="" style="edgeStyle=orthogonalEdgeStyle;rounded=0;orthogonalLoop=1;jettySize=auto;html=1;" parent="1" source="rI2FF03CvznGLxYAP6oC-7" target="rI2FF03CvznGLxYAP6oC-9" edge="1">
          <mxGeometry relative="1" as="geometry" />
        </mxCell>
        <mxCell id="rI2FF03CvznGLxYAP6oC-7" value="Servicios" style="rounded=0;whiteSpace=wrap;html=1;" parent="1" vertex="1">
          <mxGeometry x="190" y="310" width="120" height="60" as="geometry" />
        </mxCell>
        <mxCell id="rI2FF03CvznGLxYAP6oC-14" style="edgeStyle=orthogonalEdgeStyle;rounded=0;orthogonalLoop=1;jettySize=auto;html=1;" parent="1" source="rI2FF03CvznGLxYAP6oC-9" target="rI2FF03CvznGLxYAP6oC-13" edge="1">
          <mxGeometry relative="1" as="geometry" />
        </mxCell>
        <mxCell id="rI2FF03CvznGLxYAP6oC-18" style="edgeStyle=orthogonalEdgeStyle;rounded=0;orthogonalLoop=1;jettySize=auto;html=1;" parent="1" source="rI2FF03CvznGLxYAP6oC-9" target="rI2FF03CvznGLxYAP6oC-17" edge="1">
          <mxGeometry relative="1" as="geometry" />
        </mxCell>
        <mxCell id="rI2FF03CvznGLxYAP6oC-9" value="Repositories" style="rounded=0;whiteSpace=wrap;html=1;" parent="1" vertex="1">
          <mxGeometry x="370" y="310" width="120" height="60" as="geometry" />
        </mxCell>
        <mxCell id="rI2FF03CvznGLxYAP6oC-13" value="" style="shape=cylinder3;whiteSpace=wrap;html=1;boundedLbl=1;backgroundOutline=1;size=15;" parent="1" vertex="1">
          <mxGeometry x="400" y="190" width="60" height="80" as="geometry" />
        </mxCell>
        <mxCell id="rI2FF03CvznGLxYAP6oC-15" value="Servicios externos" style="ellipse;shape=cloud;whiteSpace=wrap;html=1;" parent="1" vertex="1">
          <mxGeometry x="490" y="420" width="160" height="80" as="geometry" />
        </mxCell>
        <mxCell id="rI2FF03CvznGLxYAP6oC-16" style="edgeStyle=orthogonalEdgeStyle;rounded=0;orthogonalLoop=1;jettySize=auto;html=1;" parent="1" source="rI2FF03CvznGLxYAP6oC-9" target="rI2FF03CvznGLxYAP6oC-15" edge="1">
          <mxGeometry relative="1" as="geometry" />
        </mxCell>
        <mxCell id="rI2FF03CvznGLxYAP6oC-17" value="Mensajeria" style="shape=umlActor;verticalLabelPosition=bottom;verticalAlign=top;html=1;outlineConnect=0;" parent="1" vertex="1">
          <mxGeometry x="540" y="140" width="30" height="60" as="geometry" />
        </mxCell>
        <mxCell id="rI2FF03CvznGLxYAP6oC-25" value="" style="edgeStyle=orthogonalEdgeStyle;rounded=0;orthogonalLoop=1;jettySize=auto;html=1;" parent="1" source="rI2FF03CvznGLxYAP6oC-22" target="rI2FF03CvznGLxYAP6oC-24" edge="1">
          <mxGeometry relative="1" as="geometry" />
        </mxCell>
        <mxCell id="rI2FF03CvznGLxYAP6oC-22" value="WEB" style="rounded=0;whiteSpace=wrap;html=1;" parent="1" vertex="1">
          <mxGeometry x="-340" y="180" width="120" height="60" as="geometry" />
        </mxCell>
        <mxCell id="rI2FF03CvznGLxYAP6oC-27" value="" style="edgeStyle=orthogonalEdgeStyle;rounded=0;orthogonalLoop=1;jettySize=auto;html=1;" parent="1" source="rI2FF03CvznGLxYAP6oC-24" target="rI2FF03CvznGLxYAP6oC-26" edge="1">
          <mxGeometry relative="1" as="geometry" />
        </mxCell>
        <mxCell id="rI2FF03CvznGLxYAP6oC-24" value="RegistrosDePedido" style="rounded=0;whiteSpace=wrap;html=1;" parent="1" vertex="1">
          <mxGeometry x="-550" y="330" width="120" height="60" as="geometry" />
        </mxCell>
        <mxCell id="rI2FF03CvznGLxYAP6oC-26" value="Revisión y Aprobaciones" style="rounded=0;whiteSpace=wrap;html=1;" parent="1" vertex="1">
          <mxGeometry x="-350" y="330" width="120" height="60" as="geometry" />
        </mxCell>
        <mxCell id="rI2FF03CvznGLxYAP6oC-28" style="edgeStyle=orthogonalEdgeStyle;rounded=0;orthogonalLoop=1;jettySize=auto;html=1;entryX=0.357;entryY=1.004;entryDx=0;entryDy=0;entryPerimeter=0;" parent="1" source="rI2FF03CvznGLxYAP6oC-26" target="rI2FF03CvznGLxYAP6oC-1" edge="1">
          <mxGeometry relative="1" as="geometry" />
        </mxCell>
      </root>
    </mxGraphModel>
  </diagram>
</mxfile>
